{"accessors":[{"bufferView":2,"componentType":5126,"count":2567,"max":[1.25,0.552033007144928,0.47409600019454956],"min":[-1.25,-0.552033007144928,-0.47409600019454956],"type":"VEC3"},{"bufferView":2,"byteOffset":30804,"componentType":5126,"count":2567,"max":[1,1,1],"min":[-1,-1,-1],"type":"VEC3"},{"bufferView":1,"componentType":5126,"count":2567,"max":[0.9902480244636536,0.994350016117096],"min":[0.5125049948692322,0.5200899839401245],"type":"VEC2"},{"bufferView":0,"componentType":5125,"count":8103,"type":"SCALAR"}],"asset":{"extras":{"author":"DigimonLTD (https://sketchfab.com/digimonbtc)","license":"CC-BY-4.0 (http://creativecommons.org/licenses/by/4.0/)","source":"https://sketchfab.com/3d-models/mercedes-benz-v-class-2019-ba596944fa084434896c451e4ffca5dd","title":"Mercedes-Benz V-Class 2019"},"generator":"Sketchfab-12.29.0","version":"2.0"},"bufferViews":[{"buffer":0,"byteLength":32412,"name":"floatBufferViews","target":34963},{"buffer":0,"byteLength":20536,"byteOffset":32412,"byteStride":8,"name":"floatBufferViews","target":34962},{"buffer":0,"byteLength":61608,"byteOffset":52948,"byteStride":12,"name":"floatBufferViews","target":34962}],"buffers":[{"byteLength":114556,"uri":"data:application/octet-stream;base64,"}],"images":[{"uri":"data:application/octet-stream;base64,"}],"materials":[{"doubleSided":true,"name":"TexMap","pbrMetallicRoughness":{"baseColorTexture":{"index":0},"metallicFactor":0}}],"meshes":[{"name":"Object_0","primitives":[{"attributes":{"NORMAL":1,"POSITION":0,"TEXCOORD_0":2},"indices":3,"material":0,"mode":4}]}],"nodes":[{"children":[1],"matrix":[1,0,0,0,0,2.220446049250313e-16,-1,0,0,1,2.220446049250313e-16,0,0,0,0,1],"name":"Sketchfab_model"},{"children":[2],"name":"model.obj.cleaner.materialmerger.gles"},{"mesh":0,"name":"Object_2"}],"samplers":[{"magFilter":9729,"minFilter":9987,"wrapS":10497,"wrapT":10497}],"scene":0,"scenes":[{"name":"Sketchfab_Scene","nodes":[0]}],"textures":[{"sampler":0,"source":0}]}